<svg xmlns="http://www.w3.org/2000/svg" xmlns:xlink="http://www.w3.org/1999/xlink" width="226.998" height="227" viewBox="0 0 226.998 227">
  <defs>
    <filter id="Subtraction_1" x="0" y="0" width="226.998" height="227" filterUnits="userSpaceOnUse">
      <feOffset dy="3" input="SourceAlpha"/>
      <feGaussianBlur stdDeviation="3" result="blur"/>
      <feFlood flood-opacity="0.161"/>
      <feComposite operator="in" in2="blur"/>
      <feComposite in="SourceGraphic"/>
    </filter>
  </defs>
  <g transform="matrix(1, 0, 0, 1, 0, 0)" filter="url(#Subtraction_1)">
    <path id="Subtraction_1-2" data-name="Subtraction 1" d="M-6075.5,3907a103.859,103.859,0,0,1-40.678-8.213,104.108,104.108,0,0,1-33.215-22.4,104.107,104.107,0,0,1-22.4-33.216A103.885,103.885,0,0,1-6180,3802.5c0-.419,0-.841.006-1.26,14.178,17.747,40.629,48.58,58.521,55.661a22.342,22.342,0,0,0,8.15,1.71c10.078,0,15.99-8.75,21.705-17.208,4.857-7.182,9.441-13.964,16.162-14.507.283-.025.57-.035.846-.035,6.664,0,12.834,6.268,19.365,12.905l.8.811c6.029,6.11,13.533,13.718,21.941,13.718a16.3,16.3,0,0,0,8.148-2.335c14.809-8.507,39.611-39.442,53.08-57.124.184,2.558.275,5.135.275,7.664a103.852,103.852,0,0,1-8.213,40.675,104.1,104.1,0,0,1-22.395,33.216,104.108,104.108,0,0,1-33.215,22.4A103.849,103.849,0,0,1-6075.5,3907Zm-48.9-99.285c-.107,0-.215,0-.318,0-5.26-.135-13.1-5.048-23.314-14.6a308.164,308.164,0,0,1-25.3-27.432,104.137,104.137,0,0,1,15.273-27.258,104.936,104.936,0,0,1,22.439-21.41A103.843,103.843,0,0,1-6075.5,3698a104.278,104.278,0,0,1,54.525,15.336,104.939,104.939,0,0,1,37.74,40.055,327.556,327.556,0,0,1-21.541,32.53c-11.15,14.458-20.057,21.79-26.473,21.79-9.254,0-16.186-10.4-22.885-20.464-3.2-4.8-6.5-9.766-9.973-13.407-3.881-4.074-7.594-6.062-11.35-6.076h-.043c-8.295,0-15.668,9.417-23.477,19.388l-.461.588c-4.375,5.584-8.037,10.14-11.988,13.731C-6116.043,3805.672-6120.285,3807.715-6124.395,3807.715Z" transform="translate(6189 -3692)" fill="#2a326e"/>
  </g>
</svg>
