<svg xmlns="http://www.w3.org/2000/svg" xmlns:xlink="http://www.w3.org/1999/xlink" width="130.615" height="130.616" viewBox="0 0 130.615 130.616"><defs><style>.a{fill:#fff;}.b{filter:url(#a);}</style><filter id="a" x="0" y="0" width="130.615" height="130.616" filterUnits="userSpaceOnUse"><feOffset dy="3" input="SourceAlpha"/><feGaussianBlur stdDeviation="3" result="b"/><feFlood flood-opacity="0.161"/><feComposite operator="in" in2="b"/><feComposite in="SourceGraphic"/></filter></defs><g class="b" transform="matrix(1, 0, 0, 1, 0, 0)"><path class="a" d="M-6123.694,3810.615a55.964,55.964,0,0,1-21.918-4.427,56.114,56.114,0,0,1-17.9-12.068,56.09,56.09,0,0,1-12.07-17.9,55.972,55.972,0,0,1-4.422-21.914c0-.226,0-.454,0-.68,7.639,9.563,21.891,26.176,31.533,29.992a12.04,12.04,0,0,0,4.391.922c5.43,0,8.617-4.715,11.7-9.272,2.617-3.87,5.088-7.524,8.709-7.817.152-.014.307-.019.457-.019,3.59,0,6.914,3.378,10.434,6.953l.43.438c3.248,3.292,7.293,7.392,11.824,7.392a8.78,8.78,0,0,0,4.389-1.259c7.979-4.584,21.344-21.252,28.6-30.779.1,1.378.148,2.767.148,4.13a55.952,55.952,0,0,1-4.428,21.916,56.047,56.047,0,0,1-12.066,17.9,56.122,56.122,0,0,1-17.895,12.07A55.98,55.98,0,0,1-6123.694,3810.615Zm-26.348-53.5h-.172c-2.832-.071-7.059-2.719-12.562-7.865a166.234,166.234,0,0,1-13.631-14.781,56.13,56.13,0,0,1,8.23-14.687,56.521,56.521,0,0,1,12.088-11.536A55.972,55.972,0,0,1-6123.694,3698a56.189,56.189,0,0,1,29.381,8.264,56.558,56.558,0,0,1,20.336,21.584,176.745,176.745,0,0,1-11.607,17.527c-6.008,7.79-10.809,11.742-14.266,11.742-4.984,0-8.723-5.6-12.33-11.028a55.233,55.233,0,0,0-5.373-7.224c-2.092-2.2-4.092-3.266-6.115-3.273h-.025c-4.469,0-8.441,5.073-12.648,10.446l-.248.316a60.131,60.131,0,0,1-6.461,7.4c-2.484,2.263-4.775,3.367-6.99,3.367Z" transform="translate(6189 -3692)"/></g></svg>